# xmcd
#
# Track frame offsets:
#	150
#	3322
#	18848
#	30808
#	55056
#	75056
#	96744
#	109960
#	127679
#	147269
#	165708
#	177121
#
# Disc length: 2517 seconds
#
# Revision: 1
# Processed by: cddbd v1.5.2PL0 Copyright (c) Steve Scherf et al.
# Submitted via: audiograbber 1.83.01
#
DISCID=8109d30c
DTITLE=Alan Bull - Honkin Texas Guitars
DYEAR=2005
DGENRE=blues
TTITLE0=Butterknife Blues(Intro)
TTITLE1=Jeff's Boogie
TTITLE2=Thunderbird
TTITLE3=Drive West
TTITLE4=Sleeping People
TTITLE5=Love Went That Way
TTITLE6=Ball and Chain
TTITLE7=Sugar Coated Love
TTITLE8=Red House
TTITLE9=Couldn't Stand The Weather
TTITLE10=Devil Train
TTITLE11=Butterknife Blues
EXTD=
EXTT0=
EXTT1=
EXTT2=
EXTT3=
EXTT4=
EXTT5=
EXTT6=
EXTT7=
EXTT8=
EXTT9=
EXTT10=
EXTT11=
PLAYORDER=
